<?xml version="1.0" encoding="utf-8"?>
<!-- Generator: Adobe Illustrator 18.1.1, SVG Export Plug-In . SVG Version: 6.00 Build 0)  -->
<svg version="1.1" xmlns="http://www.w3.org/2000/svg" xmlns:xlink="http://www.w3.org/1999/xlink" x="0px" y="0px"
	 viewBox="0 0 400 400" enable-background="new 0 0 400 400" xml:space="preserve">
<g id="Layer_2" display="none">
	<polygon display="inline" fill="#79A510" points="550.4,283 533.2,258 523,229.4 524.8,210.8 536.8,200.3 551.8,198.5 562.8,200 
		570,198.5 581.3,200.3 589.6,209.5 597,218.5 597,216 593.3,208.5 595.5,202.8 606.5,202 620,209.2 627.8,225.5 630.3,240.6 
		635.8,245.8 641.8,247.5 628.3,246.2 610.8,236 597.5,223.5 600.5,236 597.3,248 590.8,256.8 584.8,259 582.4,258 576.5,263 
		571.3,263.2 562.5,254 559,238.8 559.3,222.2 561.3,207.8 549.3,206.8 534,214 532.5,228.2 539,246.5 552.5,268.9 570,283 	"/>
	<circle display="inline" cx="238" cy="580.2" r="56.7"/>
	<circle display="inline" fill="#FFFFFF" cx="238" cy="580.2" r="37.6"/>
	<rect x="221.8" y="501.7" display="inline" fill="#FFFFFF" width="32.5" height="68.4"/>
</g>
<g id="Layer_4" display="none">
	<path display="inline" opacity="0.53" d="M238.1,500.9c0,0,5.6-21.7,17.8-23.4c12.3-1.8,13.3-5.2,25.8-5.5s20.3,0.3,24,6.5
		s0,7.3-8,10.3s-12.3,6.8-25,8.3s-22.7-3.2-22.7-3.2s-5.7,11.9-6,29.9s2,59.4,2,59.4h-8L238.1,500.9z"/>
	<path display="inline" opacity="0.53" d="M238.9,500.9c0,0-5.5-21.7-17.5-23.4c-12-1.8-13-5.2-25.3-5.5
		c-12.2-0.2-19.9,0.3-23.5,6.5c-3.7,6.2,0,7.3,7.8,10.3s12,6.8,24.5,8.3c12.5,1.5,22.3-3.2,22.3-3.2s2.2,12.3,2.4,30.3
		c0.2,18-4,61.7-4,61.7L239,583L238.9,500.9z"/>
</g>
<g id="Layer_3" display="none">
	<polygon display="inline" points="249.5,580 244,530.9 250,493.7 268.5,497.3 294.8,490 308.3,481.5 291,471.9 263,476 
		242.4,487.2 238,501.7 224.9,478.5 196.2,472 174,476.6 168,487.7 184,494.5 208.4,493.6 221.8,491.2 231.3,513 228.6,549.6 
		224.4,583.3 	"/>
	<polygon display="inline" points="254.3,529.8 255.5,551 272,568.2 275.6,589.3 267.4,607.6 247.1,620.7 218.4,616.3 202.8,597.3 
		201.8,574.1 215.1,554.4 221.8,546.6 223.4,527.5 201.8,540.5 187.2,558.9 181.3,583 186.4,607.8 200.5,626.7 221.8,638.6 
		251.4,639.4 276.9,625.5 291.7,602.7 293.4,571.7 282,546.6 	"/>
	<g display="inline">
		<g>
			<path d="M414.1,478.6c-7.4,0-13.8,4-17.2,10c3.4,5.9,9.9,10,17.2,10c7.4,0,13.8-4,17.2-10C427.9,482.6,421.5,478.6,414.1,478.6z"
				/>
		</g>
	</g>
	<circle display="inline" opacity="7.000000e-02" cx="434" cy="498.5" r="19.9"/>
	<circle display="inline" opacity="0.27" fill="#7CAF64" cx="434" cy="478.6" r="28.2"/>
	<path display="inline" fill="#7CAF64" d="M395.8,506.8c0-11.6,5.1-21.9,13.3-28.9c-13.6,8.4-22.7,23.4-22.7,40.6
		c0,10.2,3.2,19.6,8.6,27.3c0.6,0,1.2,0,1.8,0c7.6,0,14.8-1.5,21.5-4.2C405,535.6,395.8,522.3,395.8,506.8z"/>
	<g display="inline" opacity="0.31">
		<g>
			<circle fill="#7CAF64" cx="560" cy="336.8" r="27.3"/>
			<circle fill="#7CAF64" cx="614.7" cy="336.8" r="27.3"/>
			<circle fill="#7CAF64" cx="778.7" cy="336.8" r="27.3"/>
			<circle fill="#7CAF64" cx="724" cy="336.8" r="27.3"/>
			<circle fill="#7CAF64" cx="669.4" cy="336.8" r="27.3"/>
		</g>
		<g>
			<circle fill="#7CAF64" cx="560" cy="391.5" r="27.3"/>
			<circle fill="#7CAF64" cx="614.7" cy="391.5" r="27.3"/>
			<circle fill="#7CAF64" cx="778.7" cy="391.5" r="27.3"/>
			<circle fill="#7CAF64" cx="724" cy="391.5" r="27.3"/>
			<circle fill="#7CAF64" cx="669.4" cy="391.5" r="27.3"/>
		</g>
		<g>
			<circle fill="#7CAF64" cx="560" cy="446.1" r="27.3"/>
			<circle fill="#7CAF64" cx="614.7" cy="446.1" r="27.3"/>
			<circle fill="#7CAF64" cx="778.7" cy="446.1" r="27.3"/>
			<circle fill="#7CAF64" cx="724" cy="446.1" r="27.3"/>
			<circle fill="#7CAF64" cx="669.4" cy="446.1" r="27.3"/>
		</g>
		<g>
			<circle fill="#7CAF64" cx="560" cy="500.8" r="27.3"/>
			<circle fill="#7CAF64" cx="614.7" cy="500.8" r="27.3"/>
			<circle fill="#7CAF64" cx="778.7" cy="500.8" r="27.3"/>
			<circle fill="#7CAF64" cx="724" cy="500.8" r="27.3"/>
			<circle fill="#7CAF64" cx="669.4" cy="500.8" r="27.3"/>
		</g>
		<g>
			<circle fill="#7CAF64" cx="560" cy="555.5" r="27.3"/>
			<circle fill="#7CAF64" cx="614.7" cy="555.5" r="27.3"/>
			<circle fill="#7CAF64" cx="778.7" cy="555.5" r="27.3"/>
			<circle fill="#7CAF64" cx="724" cy="555.5" r="27.3"/>
			<circle fill="#7CAF64" cx="669.4" cy="555.5" r="27.3"/>
		</g>
	</g>
	<g display="inline" opacity="0.31">
		<g>
			<circle fill="#7CAF64" cx="588" cy="364.8" r="27.3"/>
			<circle fill="#7CAF64" cx="642.7" cy="364.8" r="27.3"/>
			<circle fill="#7CAF64" cx="806.7" cy="364.8" r="27.3"/>
			<circle fill="#7CAF64" cx="752" cy="364.8" r="27.3"/>
			<circle fill="#7CAF64" cx="697.4" cy="364.8" r="27.3"/>
		</g>
		<g>
			<circle fill="#7CAF64" cx="588" cy="419.5" r="27.3"/>
			<circle fill="#7CAF64" cx="642.7" cy="419.5" r="27.3"/>
			<circle fill="#7CAF64" cx="806.7" cy="419.5" r="27.3"/>
			<circle fill="#7CAF64" cx="752" cy="419.5" r="27.3"/>
			<circle fill="#7CAF64" cx="697.4" cy="419.5" r="27.3"/>
		</g>
		<g>
			<circle fill="#7CAF64" cx="588" cy="474.1" r="27.3"/>
			<circle fill="#7CAF64" cx="642.7" cy="474.1" r="27.3"/>
			<circle fill="#7CAF64" cx="806.7" cy="474.1" r="27.3"/>
			<circle fill="#7CAF64" cx="752" cy="474.1" r="27.3"/>
			<circle fill="#7CAF64" cx="697.4" cy="474.1" r="27.3"/>
		</g>
		<g>
			<circle fill="#7CAF64" cx="588" cy="528.8" r="27.3"/>
			<circle fill="#7CAF64" cx="642.7" cy="528.8" r="27.3"/>
			<circle fill="#7CAF64" cx="806.7" cy="528.8" r="27.3"/>
			<circle fill="#7CAF64" cx="752" cy="528.8" r="27.3"/>
			<circle fill="#7CAF64" cx="697.4" cy="528.8" r="27.3"/>
		</g>
		<g>
			<circle fill="#7CAF64" cx="588" cy="583.5" r="27.3"/>
			<circle fill="#7CAF64" cx="642.7" cy="583.5" r="27.3"/>
			<circle fill="#7CAF64" cx="806.7" cy="583.5" r="27.3"/>
			<circle fill="#7CAF64" cx="752" cy="583.5" r="27.3"/>
			<circle fill="#7CAF64" cx="697.4" cy="583.5" r="27.3"/>
		</g>
	</g>
</g>
<g id="Layer_5" display="none">
	<g display="inline">
		<g>
			<path fill="#7CAF64" d="M670,294.3c-38.9,0-70.5,31.6-70.5,70.5s31.6,70.5,70.5,70.5s70.5-31.6,70.5-70.5S709,294.3,670,294.3z
				 M663.6,419.8c-31,0-56.2-25.1-56.2-56.2s25.1-56.2,56.2-56.2s56.2,25.1,56.2,56.2S694.7,419.8,663.6,419.8z"/>
		</g>
	</g>
	<path display="inline" fill="#7CAF64" d="M670,364.8c14.9-0.4,27-12.4,27.3-27.3C682.3,337.5,670,349.7,670,364.8z"/>
	<path display="inline" fill="#7CAF64" d="M642,337.5c0.4,14.8,12.4,26.7,27.3,26.7c0.2,0,0.4,0,0.6,0
		c-0.4-14.8-12.4-26.7-27.3-26.7C642.5,337.5,642.3,337.5,642,337.5z"/>
	<g display="inline">
		<g>
			<path fill="#7CAF64" d="M670.4,364.1c-0.3,0-0.7,0-1,0c-1.9,0-3.7-0.2-5.5-0.6c-13.5,14.7-21.8,34.3-21.8,55.9c0,0.4,0,0.9,0,1.3
				c4.9,1.2,10.1,1.9,15.3,1.9c1.1,0,2.2,0,3.4-0.1c-1.3-5.6-1.9-11.4-1.9-17.3C658.8,390.2,663,376.1,670.4,364.1z"/>
		</g>
	</g>
</g>
<g id="Layer_6">
	<path fill="#7CAF64" d="M200,10.3C94.8,10.3,9.5,95.6,9.5,200.8S94.8,391.3,200,391.3S390.5,306,390.5,200.8S305.2,10.3,200,10.3z
		 M182.8,349.4c-3.2,0-6.4-0.1-9.5-0.3c-2.4-12.6-3.6-25.6-3.6-39c0-40.1,11.1-77.3,30.4-109.3c0,0.1,0-0.1,0,0
		c40.3-0.9,72.9-33.4,73.8-73.8c-40.1,0-72.8,31-73.8,72c0,0-0.1,0-0.1,0c-1-41-33.6-72-73.8-72c-0.6,0-1.2,0-1.8,0
		c0.9,34.9,25.9,63.7,59,70.5c0,0-0.1,0-0.1,0c-34.3,37.3-56.1,86.3-58.6,140.3C69.7,315,31,260.8,31,197.6
		C31,113.8,99,45.9,182.8,45.9s151.7,67.9,151.7,151.7S266.6,349.4,182.8,349.4z"/>
</g>
</svg>
